<svg width="360" height="440" viewBox="0 0 360 440" fill="none" xmlns="http://www.w3.org/2000/svg">
  <defs>
    <linearGradient id="sky" x1="180" y1="10" x2="180" y2="430" gradientUnits="userSpaceOnUse">
      <stop stop-color="#2C2A6A"/>
      <stop offset="1" stop-color="#131028"/>
    </linearGradient>
    <linearGradient id="body" x1="180" y1="70" x2="180" y2="390" gradientUnits="userSpaceOnUse">
      <stop stop-color="#7EC3FF"/>
      <stop offset="1" stop-color="#3B538F"/>
    </linearGradient>
  </defs>
  <rect width="360" height="440" rx="36" fill="url(#sky)"/>
  <rect x="80" y="48" width="200" height="324" rx="20" fill="url(#body)" stroke="#BEE3FF" stroke-width="6"/>
  <rect x="110" y="20" width="140" height="54" rx="18" fill="#FFD45D" stroke="#FFE7A8" stroke-width="6"/>
  <text x="180" y="54" text-anchor="middle" fill="#2E2756" font-family="Arial, sans-serif" font-size="24" font-weight="700">OFFICE</text>
  <g fill="#EAF7FF">
    <rect x="108" y="102" width="34" height="44" rx="8"/>
    <rect x="163" y="102" width="34" height="44" rx="8"/>
    <rect x="218" y="102" width="34" height="44" rx="8"/>
    <rect x="108" y="164" width="34" height="44" rx="8"/>
    <rect x="163" y="164" width="34" height="44" rx="8"/>
    <rect x="218" y="164" width="34" height="44" rx="8"/>
    <rect x="108" y="226" width="34" height="44" rx="8"/>
    <rect x="163" y="226" width="34" height="44" rx="8"/>
    <rect x="218" y="226" width="34" height="44" rx="8"/>
  </g>
  <rect x="145" y="290" width="70" height="82" rx="12" fill="#1A1B3D" stroke="#8ABEFF" stroke-width="6"/>
  <rect x="70" y="368" width="220" height="22" rx="11" fill="#56639E"/>
  <ellipse cx="180" cy="408" rx="118" ry="18" fill="#0D0C1A" fill-opacity="0.45"/>
</svg>

